# xmcd
#
# Track frame offsets:
#	150
#	17937
#	41427
#	54300
#	74013
#	99170
#	126333
#	149506
#	170349
#	192463
#	218260
#	234845
#	267057
#
# Disc length: 3881 seconds
#
# Revision: 0
# Processed by: cddbd v1.5.2PL0 Copyright (c) Steve Scherf et al.
# Submitted via: dBpowerAMP V4.0
#
DISCID=b20f270d
DTITLE=Stephen Guidus - Long Overdue
DYEAR=1900
DGENRE=
TTITLE0=It Could Be Anything
TTITLE1=Where's My Love
TTITLE2=Long Overdue
TTITLE3=Angels
TTITLE4=Slave
TTITLE5=Life Out of Bounds
TTITLE6=What the Hell Have I Done
TTITLE7=Oh Girl
TTITLE8=Heaven or Hell
TTITLE9=Don't You Turn Your Back on Love
TTITLE10=Jackie
TTITLE11=Tangueray
TTITLE12=Can You Hear Me
EXTD=
EXTT0=
EXTT1=
EXTT2=
EXTT3=
EXTT4=
EXTT5=
EXTT6=
EXTT7=
EXTT8=
EXTT9=
EXTT10=
EXTT11=
EXTT12=
PLAYORDER=
